<?xml version="1.0" encoding="UTF-8" standalone="no"?>
<!DOCTYPE svg PUBLIC "-//W3C//DTD SVG 1.1//EN"
 "http://www.w3.org/Graphics/SVG/1.1/DTD/svg11.dtd">
<!-- Generated by graphviz version 2.36.0 (20140111.2315)
 -->
<!-- Title: controllers_diagram Pages: 1 -->
<svg width="738pt" height="780pt"
 viewBox="0.00 0.00 738.00 780.00" xmlns="http://www.w3.org/2000/svg" xmlns:xlink="http://www.w3.org/1999/xlink">
<g id="graph0" class="graph" transform="scale(1 1) rotate(0) translate(4 776)">
<title>controllers_diagram</title>
<polygon fill="none" stroke="none" points="-4,4 -4,-776 734,-776 734,4 -4,4"/>
<!-- _diagram_info -->
<g id="node1" class="node"><title>_diagram_info</title>
<text text-anchor="start" x="386" y="-171.6" font-family="Times,serif" font-size="13.00">Controllers diagram</text>
<text text-anchor="start" x="386" y="-157.6" font-family="Times,serif" font-size="13.00">Date: May 15 2016 &#45; 19:42</text>
<text text-anchor="start" x="386" y="-143.6" font-family="Times,serif" font-size="13.00">Migration version: 20160424081843</text>
<text text-anchor="start" x="386" y="-129.6" font-family="Times,serif" font-size="13.00">Generated by RailRoady 1.4.2</text>
<text text-anchor="start" x="386" y="-115.6" font-family="Times,serif" font-size="13.00">http://railroady.prestonlee.com</text>
</g>
<!-- ApplicationController -->
<g id="node2" class="node"><title>ApplicationController</title>
<path fill="none" stroke="black" d="M12,-324.5C12,-324.5 126,-324.5 126,-324.5 132,-324.5 138,-330.5 138,-336.5 138,-336.5 138,-465.5 138,-465.5 138,-471.5 132,-477.5 126,-477.5 126,-477.5 12,-477.5 12,-477.5 6,-477.5 0,-471.5 0,-465.5 0,-465.5 0,-336.5 0,-336.5 0,-330.5 6,-324.5 12,-324.5"/>
<text text-anchor="middle" x="69" y="-462.3" font-family="Times,serif" font-size="14.00">ApplicationController</text>
<polyline fill="none" stroke="black" points="0,-454.5 138,-454.5 "/>
<text text-anchor="start" x="8" y="-439.3" font-family="Times,serif" font-size="14.00">average_purchase</text>
<text text-anchor="start" x="8" y="-424.3" font-family="Times,serif" font-size="14.00">current_user</text>
<text text-anchor="start" x="8" y="-409.3" font-family="Times,serif" font-size="14.00">ensure_that_admin</text>
<text text-anchor="start" x="8" y="-394.3" font-family="Times,serif" font-size="14.00">ensure_that_signed_in</text>
<text text-anchor="start" x="8" y="-379.3" font-family="Times,serif" font-size="14.00">set_users</text>
<polyline fill="none" stroke="black" points="0,-371.5 138,-371.5 "/>
<polyline fill="none" stroke="black" points="0,-347.5 138,-347.5 "/>
<text text-anchor="start" x="8" y="-332.3" font-family="Times,serif" font-size="14.00">_layout</text>
</g>
<!-- TodoSolutionsController -->
<g id="node3" class="node"><title>TodoSolutionsController</title>
<path fill="none" stroke="black" d="M588,-630.5C588,-630.5 716,-630.5 716,-630.5 722,-630.5 728,-636.5 728,-642.5 728,-642.5 728,-726.5 728,-726.5 728,-732.5 722,-738.5 716,-738.5 716,-738.5 588,-738.5 588,-738.5 582,-738.5 576,-732.5 576,-726.5 576,-726.5 576,-642.5 576,-642.5 576,-636.5 582,-630.5 588,-630.5"/>
<text text-anchor="middle" x="652" y="-723.3" font-family="Times,serif" font-size="14.00">TodoSolutionsController</text>
<polyline fill="none" stroke="black" points="576,-715.5 728,-715.5 "/>
<text text-anchor="start" x="584" y="-700.3" font-family="Times,serif" font-size="14.00">create</text>
<polyline fill="none" stroke="black" points="576,-692.5 728,-692.5 "/>
<polyline fill="none" stroke="black" points="576,-668.5 728,-668.5 "/>
<text text-anchor="start" x="584" y="-653.3" font-family="Times,serif" font-size="14.00">_layout</text>
<text text-anchor="start" x="584" y="-638.3" font-family="Times,serif" font-size="14.00">solution_params</text>
</g>
<!-- TodosController -->
<g id="node4" class="node"><title>TodosController</title>
<path fill="none" stroke="black" d="M84,-522.5C84,-522.5 187,-522.5 187,-522.5 193,-522.5 199,-528.5 199,-534.5 199,-534.5 199,-708.5 199,-708.5 199,-714.5 193,-720.5 187,-720.5 187,-720.5 84,-720.5 84,-720.5 78,-720.5 72,-714.5 72,-708.5 72,-708.5 72,-534.5 72,-534.5 72,-528.5 78,-522.5 84,-522.5"/>
<text text-anchor="middle" x="135.5" y="-705.3" font-family="Times,serif" font-size="14.00">TodosController</text>
<polyline fill="none" stroke="black" points="72,-697.5 199,-697.5 "/>
<text text-anchor="start" x="80" y="-682.3" font-family="Times,serif" font-size="14.00">create</text>
<text text-anchor="start" x="80" y="-667.3" font-family="Times,serif" font-size="14.00">destroy</text>
<text text-anchor="start" x="80" y="-652.3" font-family="Times,serif" font-size="14.00">index</text>
<text text-anchor="start" x="80" y="-637.3" font-family="Times,serif" font-size="14.00">new</text>
<text text-anchor="start" x="80" y="-622.3" font-family="Times,serif" font-size="14.00">show</text>
<polyline fill="none" stroke="black" points="72,-614.5 199,-614.5 "/>
<polyline fill="none" stroke="black" points="72,-590.5 199,-590.5 "/>
<text text-anchor="start" x="80" y="-575.3" font-family="Times,serif" font-size="14.00">_layout</text>
<text text-anchor="start" x="80" y="-560.3" font-family="Times,serif" font-size="14.00">permission_to_view</text>
<text text-anchor="start" x="80" y="-545.3" font-family="Times,serif" font-size="14.00">set_todo</text>
<text text-anchor="start" x="80" y="-530.3" font-family="Times,serif" font-size="14.00">todo_params</text>
</g>
<!-- IndexController -->
<g id="node5" class="node"><title>IndexController</title>
<path fill="none" stroke="black" d="M444,-648.5C444,-648.5 523,-648.5 523,-648.5 529,-648.5 535,-654.5 535,-660.5 535,-660.5 535,-759.5 535,-759.5 535,-765.5 529,-771.5 523,-771.5 523,-771.5 444,-771.5 444,-771.5 438,-771.5 432,-765.5 432,-759.5 432,-759.5 432,-660.5 432,-660.5 432,-654.5 438,-648.5 444,-648.5"/>
<text text-anchor="middle" x="483.5" y="-756.3" font-family="Times,serif" font-size="14.00">IndexController</text>
<polyline fill="none" stroke="black" points="432,-748.5 535,-748.5 "/>
<text text-anchor="start" x="440" y="-733.3" font-family="Times,serif" font-size="14.00">feed</text>
<text text-anchor="start" x="440" y="-718.3" font-family="Times,serif" font-size="14.00">index</text>
<text text-anchor="start" x="440" y="-703.3" font-family="Times,serif" font-size="14.00">toplist</text>
<polyline fill="none" stroke="black" points="432,-695.5 535,-695.5 "/>
<polyline fill="none" stroke="black" points="432,-671.5 535,-671.5 "/>
<text text-anchor="start" x="440" y="-656.3" font-family="Times,serif" font-size="14.00">_layout</text>
</g>
<!-- RefundsController -->
<g id="node6" class="node"><title>RefundsController</title>
<path fill="none" stroke="black" d="M30,-126.5C30,-126.5 125,-126.5 125,-126.5 131,-126.5 137,-132.5 137,-138.5 137,-138.5 137,-282.5 137,-282.5 137,-288.5 131,-294.5 125,-294.5 125,-294.5 30,-294.5 30,-294.5 24,-294.5 18,-288.5 18,-282.5 18,-282.5 18,-138.5 18,-138.5 18,-132.5 24,-126.5 30,-126.5"/>
<text text-anchor="middle" x="77.5" y="-279.3" font-family="Times,serif" font-size="14.00">RefundsController</text>
<polyline fill="none" stroke="black" points="18,-271.5 137,-271.5 "/>
<text text-anchor="start" x="26" y="-256.3" font-family="Times,serif" font-size="14.00">cancel</text>
<text text-anchor="start" x="26" y="-241.3" font-family="Times,serif" font-size="14.00">confirm</text>
<text text-anchor="start" x="26" y="-226.3" font-family="Times,serif" font-size="14.00">create</text>
<text text-anchor="start" x="26" y="-211.3" font-family="Times,serif" font-size="14.00">new</text>
<text text-anchor="start" x="26" y="-196.3" font-family="Times,serif" font-size="14.00">refund_description</text>
<polyline fill="none" stroke="black" points="18,-188.5 137,-188.5 "/>
<polyline fill="none" stroke="black" points="18,-164.5 137,-164.5 "/>
<text text-anchor="start" x="26" y="-149.3" font-family="Times,serif" font-size="14.00">_layout</text>
<text text-anchor="start" x="26" y="-134.3" font-family="Times,serif" font-size="14.00">refund_params</text>
</g>
<!-- SessionsController -->
<g id="node7" class="node"><title>SessionsController</title>
<path fill="none" stroke="black" d="M192,-0.5C192,-0.5 287,-0.5 287,-0.5 293,-0.5 299,-6.5 299,-12.5 299,-12.5 299,-111.5 299,-111.5 299,-117.5 293,-123.5 287,-123.5 287,-123.5 192,-123.5 192,-123.5 186,-123.5 180,-117.5 180,-111.5 180,-111.5 180,-12.5 180,-12.5 180,-6.5 186,-0.5 192,-0.5"/>
<text text-anchor="middle" x="239.5" y="-108.3" font-family="Times,serif" font-size="14.00">SessionsController</text>
<polyline fill="none" stroke="black" points="180,-100.5 299,-100.5 "/>
<text text-anchor="start" x="188" y="-85.3" font-family="Times,serif" font-size="14.00">create</text>
<text text-anchor="start" x="188" y="-70.3" font-family="Times,serif" font-size="14.00">destroy</text>
<text text-anchor="start" x="188" y="-55.3" font-family="Times,serif" font-size="14.00">new</text>
<polyline fill="none" stroke="black" points="180,-47.5 299,-47.5 "/>
<polyline fill="none" stroke="black" points="180,-23.5 299,-23.5 "/>
<text text-anchor="start" x="188" y="-8.3" font-family="Times,serif" font-size="14.00">_layout</text>
</g>
<!-- TodoCategoriesController -->
<g id="node8" class="node"><title>TodoCategoriesController</title>
<path fill="none" stroke="black" d="M390,-432.5C390,-432.5 524,-432.5 524,-432.5 530,-432.5 536,-438.5 536,-444.5 536,-444.5 536,-603.5 536,-603.5 536,-609.5 530,-615.5 524,-615.5 524,-615.5 390,-615.5 390,-615.5 384,-615.5 378,-609.5 378,-603.5 378,-603.5 378,-444.5 378,-444.5 378,-438.5 384,-432.5 390,-432.5"/>
<text text-anchor="middle" x="457" y="-600.3" font-family="Times,serif" font-size="14.00">TodoCategoriesController</text>
<polyline fill="none" stroke="black" points="378,-592.5 536,-592.5 "/>
<text text-anchor="start" x="386" y="-577.3" font-family="Times,serif" font-size="14.00">create</text>
<text text-anchor="start" x="386" y="-562.3" font-family="Times,serif" font-size="14.00">edit</text>
<text text-anchor="start" x="386" y="-547.3" font-family="Times,serif" font-size="14.00">new</text>
<text text-anchor="start" x="386" y="-532.3" font-family="Times,serif" font-size="14.00">show</text>
<text text-anchor="start" x="386" y="-517.3" font-family="Times,serif" font-size="14.00">update</text>
<polyline fill="none" stroke="black" points="378,-509.5 536,-509.5 "/>
<polyline fill="none" stroke="black" points="378,-485.5 536,-485.5 "/>
<text text-anchor="start" x="386" y="-470.3" font-family="Times,serif" font-size="14.00">_layout</text>
<text text-anchor="start" x="386" y="-455.3" font-family="Times,serif" font-size="14.00">set_todo_category</text>
<text text-anchor="start" x="386" y="-440.3" font-family="Times,serif" font-size="14.00">todo_category_params</text>
</g>
<!-- PurchaseCategoriesController -->
<g id="node9" class="node"><title>PurchaseCategoriesController</title>
<path fill="none" stroke="black" d="M390,-216.5C390,-216.5 545,-216.5 545,-216.5 551,-216.5 557,-222.5 557,-228.5 557,-228.5 557,-387.5 557,-387.5 557,-393.5 551,-399.5 545,-399.5 545,-399.5 390,-399.5 390,-399.5 384,-399.5 378,-393.5 378,-387.5 378,-387.5 378,-228.5 378,-228.5 378,-222.5 384,-216.5 390,-216.5"/>
<text text-anchor="middle" x="467.5" y="-384.3" font-family="Times,serif" font-size="14.00">PurchaseCategoriesController</text>
<polyline fill="none" stroke="black" points="378,-376.5 557,-376.5 "/>
<text text-anchor="start" x="386" y="-361.3" font-family="Times,serif" font-size="14.00">create</text>
<text text-anchor="start" x="386" y="-346.3" font-family="Times,serif" font-size="14.00">edit</text>
<text text-anchor="start" x="386" y="-331.3" font-family="Times,serif" font-size="14.00">new</text>
<text text-anchor="start" x="386" y="-316.3" font-family="Times,serif" font-size="14.00">show</text>
<text text-anchor="start" x="386" y="-301.3" font-family="Times,serif" font-size="14.00">update</text>
<polyline fill="none" stroke="black" points="378,-293.5 557,-293.5 "/>
<polyline fill="none" stroke="black" points="378,-269.5 557,-269.5 "/>
<text text-anchor="start" x="386" y="-254.3" font-family="Times,serif" font-size="14.00">_layout</text>
<text text-anchor="start" x="386" y="-239.3" font-family="Times,serif" font-size="14.00">purchase_category_params</text>
<text text-anchor="start" x="386" y="-224.3" font-family="Times,serif" font-size="14.00">set_purchase_category</text>
</g>
<!-- UsersController -->
<g id="node10" class="node"><title>UsersController</title>
<path fill="none" stroke="black" d="M192,-162.5C192,-162.5 329,-162.5 329,-162.5 335,-162.5 341,-168.5 341,-174.5 341,-174.5 341,-468.5 341,-468.5 341,-474.5 335,-480.5 329,-480.5 329,-480.5 192,-480.5 192,-480.5 186,-480.5 180,-474.5 180,-468.5 180,-468.5 180,-174.5 180,-174.5 180,-168.5 186,-162.5 192,-162.5"/>
<text text-anchor="middle" x="260.5" y="-465.3" font-family="Times,serif" font-size="14.00">UsersController</text>
<polyline fill="none" stroke="black" points="180,-457.5 341,-457.5 "/>
<text text-anchor="start" x="188" y="-442.3" font-family="Times,serif" font-size="14.00">activate</text>
<text text-anchor="start" x="188" y="-427.3" font-family="Times,serif" font-size="14.00">chores</text>
<text text-anchor="start" x="188" y="-412.3" font-family="Times,serif" font-size="14.00">create</text>
<text text-anchor="start" x="188" y="-397.3" font-family="Times,serif" font-size="14.00">destroy</text>
<text text-anchor="start" x="188" y="-382.3" font-family="Times,serif" font-size="14.00">edit</text>
<text text-anchor="start" x="188" y="-367.3" font-family="Times,serif" font-size="14.00">manage</text>
<text text-anchor="start" x="188" y="-352.3" font-family="Times,serif" font-size="14.00">purchases</text>
<text text-anchor="start" x="188" y="-337.3" font-family="Times,serif" font-size="14.00">refunds</text>
<text text-anchor="start" x="188" y="-322.3" font-family="Times,serif" font-size="14.00">show</text>
<text text-anchor="start" x="188" y="-307.3" font-family="Times,serif" font-size="14.00">todos</text>
<text text-anchor="start" x="188" y="-292.3" font-family="Times,serif" font-size="14.00">update</text>
<polyline fill="none" stroke="black" points="180,-284.5 341,-284.5 "/>
<polyline fill="none" stroke="black" points="180,-260.5 341,-260.5 "/>
<text text-anchor="start" x="188" y="-245.3" font-family="Times,serif" font-size="14.00">_layout</text>
<text text-anchor="start" x="188" y="-230.3" font-family="Times,serif" font-size="14.00">ensure_that_user</text>
<text text-anchor="start" x="188" y="-215.3" font-family="Times,serif" font-size="14.00">ensure_update_permission</text>
<text text-anchor="start" x="188" y="-200.3" font-family="Times,serif" font-size="14.00">set_user</text>
<text text-anchor="start" x="188" y="-185.3" font-family="Times,serif" font-size="14.00">update_params</text>
<text text-anchor="start" x="188" y="-170.3" font-family="Times,serif" font-size="14.00">user_params</text>
</g>
<!-- ChoresController -->
<g id="node11" class="node"><title>ChoresController</title>
<path fill="none" stroke="black" d="M246,-522.5C246,-522.5 332,-522.5 332,-522.5 338,-522.5 344,-528.5 344,-534.5 344,-534.5 344,-738.5 344,-738.5 344,-744.5 338,-750.5 332,-750.5 332,-750.5 246,-750.5 246,-750.5 240,-750.5 234,-744.5 234,-738.5 234,-738.5 234,-534.5 234,-534.5 234,-528.5 240,-522.5 246,-522.5"/>
<text text-anchor="middle" x="289" y="-735.3" font-family="Times,serif" font-size="14.00">ChoresController</text>
<polyline fill="none" stroke="black" points="234,-727.5 344,-727.5 "/>
<text text-anchor="start" x="242" y="-712.3" font-family="Times,serif" font-size="14.00">complete</text>
<text text-anchor="start" x="242" y="-697.3" font-family="Times,serif" font-size="14.00">create</text>
<text text-anchor="start" x="242" y="-682.3" font-family="Times,serif" font-size="14.00">destroy</text>
<text text-anchor="start" x="242" y="-667.3" font-family="Times,serif" font-size="14.00">edit</text>
<text text-anchor="start" x="242" y="-652.3" font-family="Times,serif" font-size="14.00">index</text>
<text text-anchor="start" x="242" y="-637.3" font-family="Times,serif" font-size="14.00">new</text>
<text text-anchor="start" x="242" y="-622.3" font-family="Times,serif" font-size="14.00">show</text>
<text text-anchor="start" x="242" y="-607.3" font-family="Times,serif" font-size="14.00">update</text>
<polyline fill="none" stroke="black" points="234,-599.5 344,-599.5 "/>
<polyline fill="none" stroke="black" points="234,-575.5 344,-575.5 "/>
<text text-anchor="start" x="242" y="-560.3" font-family="Times,serif" font-size="14.00">_layout</text>
<text text-anchor="start" x="242" y="-545.3" font-family="Times,serif" font-size="14.00">chore_params</text>
<text text-anchor="start" x="242" y="-530.3" font-family="Times,serif" font-size="14.00">set_chore</text>
</g>
<!-- ChoreUsersController -->
<g id="node12" class="node"><title>ChoreUsersController</title>
<path fill="none" stroke="black" d="M606,-216.5C606,-216.5 718,-216.5 718,-216.5 724,-216.5 730,-222.5 730,-228.5 730,-228.5 730,-312.5 730,-312.5 730,-318.5 724,-324.5 718,-324.5 718,-324.5 606,-324.5 606,-324.5 600,-324.5 594,-318.5 594,-312.5 594,-312.5 594,-228.5 594,-228.5 594,-222.5 600,-216.5 606,-216.5"/>
<text text-anchor="middle" x="662" y="-309.3" font-family="Times,serif" font-size="14.00">ChoreUsersController</text>
<polyline fill="none" stroke="black" points="594,-301.5 730,-301.5 "/>
<text text-anchor="start" x="602" y="-286.3" font-family="Times,serif" font-size="14.00">add_to_user</text>
<text text-anchor="start" x="602" y="-271.3" font-family="Times,serif" font-size="14.00">remove_from_user</text>
<polyline fill="none" stroke="black" points="594,-263.5 730,-263.5 "/>
<polyline fill="none" stroke="black" points="594,-239.5 730,-239.5 "/>
<text text-anchor="start" x="602" y="-224.3" font-family="Times,serif" font-size="14.00">_layout</text>
</g>
<!-- PurchasesController -->
<g id="node13" class="node"><title>PurchasesController</title>
<path fill="none" stroke="black" d="M588,-432.5C588,-432.5 690,-432.5 690,-432.5 696,-432.5 702,-438.5 702,-444.5 702,-444.5 702,-573.5 702,-573.5 702,-579.5 696,-585.5 690,-585.5 690,-585.5 588,-585.5 588,-585.5 582,-585.5 576,-579.5 576,-573.5 576,-573.5 576,-444.5 576,-444.5 576,-438.5 582,-432.5 588,-432.5"/>
<text text-anchor="middle" x="639" y="-570.3" font-family="Times,serif" font-size="14.00">PurchasesController</text>
<polyline fill="none" stroke="black" points="576,-562.5 702,-562.5 "/>
<text text-anchor="start" x="584" y="-547.3" font-family="Times,serif" font-size="14.00">create</text>
<text text-anchor="start" x="584" y="-532.3" font-family="Times,serif" font-size="14.00">destroy</text>
<text text-anchor="start" x="584" y="-517.3" font-family="Times,serif" font-size="14.00">index</text>
<text text-anchor="start" x="584" y="-502.3" font-family="Times,serif" font-size="14.00">new</text>
<polyline fill="none" stroke="black" points="576,-494.5 702,-494.5 "/>
<polyline fill="none" stroke="black" points="576,-470.5 702,-470.5 "/>
<text text-anchor="start" x="584" y="-455.3" font-family="Times,serif" font-size="14.00">_layout</text>
<text text-anchor="start" x="584" y="-440.3" font-family="Times,serif" font-size="14.00">purchase_params</text>
</g>
</g>
</svg>
