<?xml version="1.0" encoding="UTF-8" standalone="no"?>
<!DOCTYPE svg PUBLIC "-//W3C//DTD SVG 1.1//EN"
 "http://www.w3.org/Graphics/SVG/1.1/DTD/svg11.dtd">
<!-- Generated by graphviz version 2.36.0 (20140111.2315)
 -->
<!-- Title: models_diagram Pages: 1 -->
<svg width="938pt" height="230pt"
 viewBox="0.00 0.00 938.00 230.00" xmlns="http://www.w3.org/2000/svg" xmlns:xlink="http://www.w3.org/1999/xlink">
<g id="graph0" class="graph" transform="scale(1 1) rotate(0) translate(4 226)">
<title>models_diagram</title>
<polygon fill="none" stroke="none" points="-4,4 -4,-226 934,-226 934,4 -4,4"/>
<!-- _diagram_info -->
<g id="node1" class="node"><title>_diagram_info</title>
<text text-anchor="start" x="8" y="-207.6" font-family="Times,serif" font-size="13.00">Models diagram</text>
<text text-anchor="start" x="8" y="-193.6" font-family="Times,serif" font-size="13.00">Date: May 15 2016 &#45; 19:42</text>
<text text-anchor="start" x="8" y="-179.6" font-family="Times,serif" font-size="13.00">Migration version: 20160424081843</text>
<text text-anchor="start" x="8" y="-165.6" font-family="Times,serif" font-size="13.00">Generated by RailRoady 1.4.2</text>
<text text-anchor="start" x="8" y="-151.6" font-family="Times,serif" font-size="13.00">http://railroady.prestonlee.com</text>
</g>
<!-- User -->
<g id="node2" class="node"><title>User</title>
<ellipse fill="none" stroke="black" cx="524" cy="-183" rx="26.949" ry="18"/>
<text text-anchor="middle" x="524" y="-179.3" font-family="Times,serif" font-size="14.00">User</text>
</g>
<!-- ChoreUser -->
<g id="node3" class="node"><title>ChoreUser</title>
<ellipse fill="none" stroke="black" cx="618" cy="-90" rx="48.6179" ry="18"/>
<text text-anchor="middle" x="618" y="-86.3" font-family="Times,serif" font-size="14.00">ChoreUser</text>
</g>
<!-- User&#45;&gt;ChoreUser -->
<g id="edge1" class="edge"><title>User&#45;&gt;ChoreUser</title>
<path fill="none" stroke="#553c82" d="M544.645,-162.014C559.198,-147.926 578.732,-129.015 593.983,-114.251"/>
<ellipse fill="none" stroke="#553c82" cx="541.561" cy="-164.999" rx="4.00002" ry="4.00002"/>
<polygon fill="#553c82" stroke="#553c82" points="594.334,-113.911 604.649,-110.188 597.926,-110.433 601.519,-106.955 601.519,-106.955 601.519,-106.955 597.926,-110.433 598.389,-103.722 594.334,-113.911 594.334,-113.911"/>
</g>
<!-- Task -->
<g id="node6" class="node"><title>Task</title>
<ellipse fill="none" stroke="black" cx="596" cy="-18" rx="27.4223" ry="18"/>
<text text-anchor="middle" x="596" y="-14.3" font-family="Times,serif" font-size="14.00">Task</text>
</g>
<!-- User&#45;&gt;Task -->
<g id="edge2" class="edge"><title>User&#45;&gt;Task</title>
<path fill="none" stroke="#4183a9" d="M558.001,-176.094C594.138,-167.805 649.509,-148.879 675,-108 683.466,-94.4233 682.529,-86.1178 675,-72 665.164,-53.5561 645.744,-40.3949 628.621,-31.801"/>
<ellipse fill="none" stroke="#4183a9" cx="554.062" cy="-176.948" rx="4.00001" ry="4.00001"/>
<polygon fill="#4183a9" stroke="#4183a9" points="628.477,-31.7332 621.329,-23.4167 623.949,-29.6126 619.421,-27.492 619.421,-27.492 619.421,-27.492 623.949,-29.6126 617.512,-31.5672 628.477,-31.7332 628.477,-31.7332"/>
</g>
<!-- Todo -->
<g id="node8" class="node"><title>Todo</title>
<ellipse fill="none" stroke="black" cx="294" cy="-90" rx="29.3722" ry="18"/>
<text text-anchor="middle" x="294" y="-86.3" font-family="Times,serif" font-size="14.00">Todo</text>
</g>
<!-- User&#45;&gt;Todo -->
<g id="edge7" class="edge"><title>User&#45;&gt;Todo</title>
<path fill="none" stroke="#e5bced" d="M491.742,-169.237C448.248,-152.028 371.194,-121.542 327.214,-104.141"/>
<polygon fill="#e5bced" stroke="#e5bced" points="491.807,-169.263 499.45,-177.126 496.457,-171.102 501.106,-172.942 501.106,-172.942 501.106,-172.942 496.457,-171.102 502.761,-168.757 491.807,-169.263 491.807,-169.263"/>
<polygon fill="#e5bced" stroke="#e5bced" points="327.13,-104.108 319.487,-96.2447 322.481,-102.269 317.832,-100.429 317.832,-100.429 317.832,-100.429 322.481,-102.269 316.176,-104.613 327.13,-104.108 327.13,-104.108"/>
</g>
<!-- TodoUser -->
<g id="node9" class="node"><title>TodoUser</title>
<ellipse fill="none" stroke="black" cx="405" cy="-18" rx="46.2191" ry="18"/>
<text text-anchor="middle" x="405" y="-14.3" font-family="Times,serif" font-size="14.00">TodoUser</text>
</g>
<!-- User&#45;&gt;TodoUser -->
<g id="edge6" class="edge"><title>User&#45;&gt;TodoUser</title>
<path fill="none" stroke="#67dd14" d="M492.163,-171.882C463.919,-161.027 424.375,-140.776 406,-108 395.465,-89.2087 396.108,-64.4893 398.879,-45.8715"/>
<ellipse fill="none" stroke="#67dd14" cx="496.049" cy="-173.314" rx="4.00001" ry="4.00001"/>
<polygon fill="#67dd14" stroke="#67dd14" points="398.888,-45.8161 405.064,-36.7545 399.761,-40.8928 400.633,-35.9695 400.633,-35.9695 400.633,-35.9695 399.761,-40.8928 396.202,-35.1844 398.888,-45.8161 398.888,-45.8161"/>
</g>
<!-- Purchase -->
<g id="node10" class="node"><title>Purchase</title>
<ellipse fill="none" stroke="black" cx="765" cy="-90" rx="42.3701" ry="18"/>
<text text-anchor="middle" x="765" y="-86.3" font-family="Times,serif" font-size="14.00">Purchase</text>
</g>
<!-- User&#45;&gt;Purchase -->
<g id="edge4" class="edge"><title>User&#45;&gt;Purchase</title>
<path fill="none" stroke="#5d3823" d="M554.721,-170.4C598.059,-154.036 677.189,-124.157 725.047,-106.086"/>
<ellipse fill="none" stroke="#5d3823" cx="550.85" cy="-171.862" rx="4.00001" ry="4.00001"/>
<polygon fill="#5d3823" stroke="#5d3823" points="725.116,-106.06 736.061,-106.737 729.794,-104.294 734.471,-102.527 734.471,-102.527 734.471,-102.527 729.794,-104.294 732.882,-98.3175 725.116,-106.06 725.116,-106.06"/>
</g>
<!-- Chore -->
<g id="node11" class="node"><title>Chore</title>
<ellipse fill="none" stroke="black" cx="447" cy="-90" rx="32.2457" ry="18"/>
<text text-anchor="middle" x="447" y="-86.3" font-family="Times,serif" font-size="14.00">Chore</text>
</g>
<!-- User&#45;&gt;Chore -->
<g id="edge3" class="edge"><title>User&#45;&gt;Chore</title>
<path fill="none" stroke="#421e07" d="M504.499,-158.953C493.034,-145.403 478.568,-128.308 467.015,-114.654"/>
<polygon fill="#421e07" stroke="#421e07" points="504.826,-159.339 507.85,-169.88 508.055,-163.156 511.285,-166.973 511.285,-166.973 511.285,-166.973 508.055,-163.156 514.72,-164.066 504.826,-159.339 504.826,-159.339"/>
<polygon fill="#421e07" stroke="#421e07" points="466.71,-114.294 463.686,-103.753 463.48,-110.477 460.25,-106.66 460.25,-106.66 460.25,-106.66 463.48,-110.477 456.815,-109.566 466.71,-114.294 466.71,-114.294"/>
</g>
<!-- Xp -->
<g id="node14" class="node"><title>Xp</title>
<ellipse fill="none" stroke="black" cx="524" cy="-90" rx="27" ry="18"/>
<text text-anchor="middle" x="524" y="-86.3" font-family="Times,serif" font-size="14.00">Xp</text>
</g>
<!-- User&#45;&gt;Xp -->
<g id="edge5" class="edge"><title>User&#45;&gt;Xp</title>
<path fill="none" stroke="#ac68c1" d="M524,-156.729C524,-144.725 524,-130.362 524,-118.129"/>
<ellipse fill="none" stroke="#ac68c1" cx="524" cy="-160.884" rx="4" ry="4"/>
<polygon fill="#ac68c1" stroke="#ac68c1" points="524,-118.04 528.5,-108.04 524,-113.04 524,-108.04 524,-108.04 524,-108.04 524,-113.04 519.5,-108.04 524,-118.04 524,-118.04"/>
</g>
<!-- TodoCategory -->
<g id="node4" class="node"><title>TodoCategory</title>
<ellipse fill="none" stroke="black" cx="294" cy="-183" rx="61.6163" ry="18"/>
<text text-anchor="middle" x="294" y="-179.3" font-family="Times,serif" font-size="14.00">TodoCategory</text>
</g>
<!-- TodoCategory&#45;&gt;Todo -->
<g id="edge8" class="edge"><title>TodoCategory&#45;&gt;Todo</title>
<path fill="none" stroke="#d97318" d="M294,-156.729C294,-144.725 294,-130.362 294,-118.129"/>
<ellipse fill="none" stroke="#d97318" cx="294" cy="-160.884" rx="4" ry="4"/>
<polygon fill="#d97318" stroke="#d97318" points="294,-118.04 298.5,-108.04 294,-113.04 294,-108.04 294,-108.04 294,-108.04 294,-113.04 289.5,-108.04 294,-118.04 294,-118.04"/>
</g>
<!-- TodoComment -->
<g id="node5" class="node"><title>TodoComment</title>
<ellipse fill="none" stroke="black" cx="276" cy="-18" rx="64.4914" ry="18"/>
<text text-anchor="middle" x="276" y="-14.3" font-family="Times,serif" font-size="14.00">TodoComment</text>
</g>
<!-- TodoSolution -->
<g id="node7" class="node"><title>TodoSolution</title>
<ellipse fill="none" stroke="black" cx="134" cy="-18" rx="59.2173" ry="18"/>
<text text-anchor="middle" x="134" y="-14.3" font-family="Times,serif" font-size="14.00">TodoSolution</text>
</g>
<!-- Todo&#45;&gt;TodoComment -->
<g id="edge11" class="edge"><title>Todo&#45;&gt;TodoComment</title>
<path fill="none" stroke="#b1e182" d="M287.64,-64.2675C286.153,-58.4845 284.561,-52.2913 283.046,-46.3999"/>
<ellipse fill="none" stroke="#b1e182" cx="288.647" cy="-68.181" rx="4.00001" ry="4.00001"/>
<polygon fill="#b1e182" stroke="#b1e182" points="282.933,-45.9602 284.8,-35.1546 281.687,-41.1178 280.442,-36.2753 280.442,-36.2753 280.442,-36.2753 281.687,-41.1178 276.084,-37.396 282.933,-45.9602 282.933,-45.9602"/>
</g>
<!-- Todo&#45;&gt;TodoSolution -->
<g id="edge10" class="edge"><title>Todo&#45;&gt;TodoSolution</title>
<path fill="none" stroke="#841785" d="M263.265,-75.5534C237.874,-64.4447 201.64,-48.5926 173.992,-36.4966"/>
<ellipse fill="none" stroke="#841785" cx="267.07" cy="-77.2181" rx="4.00002" ry="4.00002"/>
<ellipse fill="#841785" stroke="#841785" cx="170.102" cy="-34.7949" rx="4.00002" ry="4.00002"/>
</g>
<!-- Todo&#45;&gt;TodoUser -->
<g id="edge9" class="edge"><title>Todo&#45;&gt;TodoUser</title>
<path fill="none" stroke="#3325e8" d="M320.662,-72.1862C336.383,-62.2717 356.38,-49.6614 372.956,-39.2082"/>
<ellipse fill="none" stroke="#3325e8" cx="316.972" cy="-74.5128" rx="4.00002" ry="4.00002"/>
<polygon fill="#3325e8" stroke="#3325e8" points="373.305,-38.9879 384.164,-37.46 377.534,-36.3208 381.764,-33.6536 381.764,-33.6536 381.764,-33.6536 377.534,-36.3208 379.363,-29.8473 373.305,-38.9879 373.305,-38.9879"/>
</g>
<!-- Chore&#45;&gt;Task -->
<g id="edge12" class="edge"><title>Chore&#45;&gt;Task</title>
<path fill="none" stroke="#f37fae" d="M478.299,-74.2956C503.748,-62.3398 539.473,-45.5562 564.875,-33.6225"/>
<ellipse fill="none" stroke="#f37fae" cx="474.56" cy="-76.0524" rx="4.00002" ry="4.00002"/>
<polygon fill="#f37fae" stroke="#f37fae" points="565.011,-33.5586 575.976,-33.3793 569.537,-31.4325 574.062,-29.3064 574.062,-29.3064 574.062,-29.3064 569.537,-31.4325 572.149,-25.2335 565.011,-33.5586 565.011,-33.5586"/>
</g>
<!-- PurchaseCategory -->
<g id="node12" class="node"><title>PurchaseCategory</title>
<ellipse fill="none" stroke="black" cx="765" cy="-183" rx="74.6146" ry="18"/>
<text text-anchor="middle" x="765" y="-179.3" font-family="Times,serif" font-size="14.00">PurchaseCategory</text>
</g>
<!-- PurchaseCategory&#45;&gt;Purchase -->
<g id="edge13" class="edge"><title>PurchaseCategory&#45;&gt;Purchase</title>
<path fill="none" stroke="#5d491a" d="M765,-156.729C765,-144.725 765,-130.362 765,-118.129"/>
<ellipse fill="none" stroke="#5d491a" cx="765" cy="-160.884" rx="4" ry="4"/>
<polygon fill="#5d491a" stroke="#5d491a" points="765,-118.04 769.5,-108.04 765,-113.04 765,-108.04 765,-108.04 765,-108.04 765,-113.04 760.5,-108.04 765,-118.04 765,-118.04"/>
</g>
<!-- Refund -->
<g id="node13" class="node"><title>Refund</title>
<ellipse fill="none" stroke="black" cx="894" cy="-183" rx="36.096" ry="18"/>
<text text-anchor="middle" x="894" y="-179.3" font-family="Times,serif" font-size="14.00">Refund</text>
</g>
</g>
</svg>
