<?xml version="1.0" encoding="UTF-8" standalone="no"?>
<!DOCTYPE svg PUBLIC "-//W3C//DTD SVG 1.1//EN"
 "http://www.w3.org/Graphics/SVG/1.1/DTD/svg11.dtd">
<!-- Generated by graphviz version 2.36.0 (20140111.2315)
 -->
<!-- Title: models_diagram Pages: 1 -->
<svg width="1277pt" height="568pt"
 viewBox="0.00 0.00 1277.00 568.00" xmlns="http://www.w3.org/2000/svg" xmlns:xlink="http://www.w3.org/1999/xlink">
<g id="graph0" class="graph" transform="scale(1 1) rotate(0) translate(4 564)">
<title>models_diagram</title>
<polygon fill="none" stroke="none" points="-4,4 -4,-564 1273,-564 1273,4 -4,4"/>
<!-- _diagram_info -->
<g id="node1" class="node"><title>_diagram_info</title>
<text text-anchor="start" x="8" y="-500.6" font-family="Times,serif" font-size="13.00">Models diagram</text>
<text text-anchor="start" x="8" y="-486.6" font-family="Times,serif" font-size="13.00">Date: May 15 2016 &#45; 19:42</text>
<text text-anchor="start" x="8" y="-472.6" font-family="Times,serif" font-size="13.00">Migration version: 20160424081843</text>
<text text-anchor="start" x="8" y="-458.6" font-family="Times,serif" font-size="13.00">Generated by RailRoady 1.4.2</text>
<text text-anchor="start" x="8" y="-444.6" font-family="Times,serif" font-size="13.00">http://railroady.prestonlee.com</text>
</g>
<!-- User -->
<g id="node2" class="node"><title>User</title>
<path fill="none" stroke="black" d="M624.5,-393C624.5,-393 755.5,-393 755.5,-393 761.5,-393 767.5,-399 767.5,-405 767.5,-405 767.5,-547 767.5,-547 767.5,-553 761.5,-559 755.5,-559 755.5,-559 624.5,-559 624.5,-559 618.5,-559 612.5,-553 612.5,-547 612.5,-547 612.5,-405 612.5,-405 612.5,-399 618.5,-393 624.5,-393"/>
<text text-anchor="middle" x="690" y="-543.8" font-family="Times,serif" font-size="14.00">User</text>
<polyline fill="none" stroke="black" points="612.5,-536 767.5,-536 "/>
<text text-anchor="start" x="620.5" y="-520.8" font-family="Times,serif" font-size="14.00">id :INTEGER</text>
<text text-anchor="start" x="620.5" y="-505.8" font-family="Times,serif" font-size="14.00">name :varchar</text>
<text text-anchor="start" x="620.5" y="-490.8" font-family="Times,serif" font-size="14.00">username :varchar</text>
<text text-anchor="start" x="620.5" y="-475.8" font-family="Times,serif" font-size="14.00">xp :integer</text>
<text text-anchor="start" x="620.5" y="-460.8" font-family="Times,serif" font-size="14.00">created_at :datetime</text>
<text text-anchor="start" x="620.5" y="-445.8" font-family="Times,serif" font-size="14.00">updated_at :datetime</text>
<text text-anchor="start" x="620.5" y="-430.8" font-family="Times,serif" font-size="14.00">password_digest :varchar</text>
<text text-anchor="start" x="620.5" y="-415.8" font-family="Times,serif" font-size="14.00">admin :boolean</text>
<text text-anchor="start" x="620.5" y="-400.8" font-family="Times,serif" font-size="14.00">deactivated :boolean</text>
</g>
<!-- ChoreUser -->
<g id="node3" class="node"><title>ChoreUser</title>
<path fill="none" stroke="black" d="M785.5,-204C785.5,-204 892.5,-204 892.5,-204 898.5,-204 904.5,-210 904.5,-216 904.5,-216 904.5,-298 904.5,-298 904.5,-304 898.5,-310 892.5,-310 892.5,-310 785.5,-310 785.5,-310 779.5,-310 773.5,-304 773.5,-298 773.5,-298 773.5,-216 773.5,-216 773.5,-210 779.5,-204 785.5,-204"/>
<text text-anchor="middle" x="839" y="-294.8" font-family="Times,serif" font-size="14.00">ChoreUser</text>
<polyline fill="none" stroke="black" points="773.5,-287 904.5,-287 "/>
<text text-anchor="start" x="781.5" y="-271.8" font-family="Times,serif" font-size="14.00">id :INTEGER</text>
<text text-anchor="start" x="781.5" y="-256.8" font-family="Times,serif" font-size="14.00">user_id :integer</text>
<text text-anchor="start" x="781.5" y="-241.8" font-family="Times,serif" font-size="14.00">chore_id :integer</text>
<text text-anchor="start" x="781.5" y="-226.8" font-family="Times,serif" font-size="14.00">created_at :datetime</text>
<text text-anchor="start" x="781.5" y="-211.8" font-family="Times,serif" font-size="14.00">updated_at :datetime</text>
</g>
<!-- User&#45;&gt;ChoreUser -->
<g id="edge1" class="edge"><title>User&#45;&gt;ChoreUser</title>
<path fill="none" stroke="#b526a1" d="M751.046,-386.093C766.599,-363.443 782.961,-339.613 797.299,-318.733"/>
<ellipse fill="none" stroke="#b526a1" cx="748.595" cy="-389.664" rx="4.00002" ry="4.00002"/>
<polygon fill="#b526a1" stroke="#b526a1" points="797.441,-318.525 806.812,-312.828 800.272,-314.403 803.102,-310.281 803.102,-310.281 803.102,-310.281 800.272,-314.403 799.392,-307.734 797.441,-318.525 797.441,-318.525"/>
</g>
<!-- Task -->
<g id="node6" class="node"><title>Task</title>
<path fill="none" stroke="black" d="M705.5,-8C705.5,-8 812.5,-8 812.5,-8 818.5,-8 824.5,-14 824.5,-20 824.5,-20 824.5,-102 824.5,-102 824.5,-108 818.5,-114 812.5,-114 812.5,-114 705.5,-114 705.5,-114 699.5,-114 693.5,-108 693.5,-102 693.5,-102 693.5,-20 693.5,-20 693.5,-14 699.5,-8 705.5,-8"/>
<text text-anchor="middle" x="759" y="-98.8" font-family="Times,serif" font-size="14.00">Task</text>
<polyline fill="none" stroke="black" points="693.5,-91 824.5,-91 "/>
<text text-anchor="start" x="701.5" y="-75.8" font-family="Times,serif" font-size="14.00">id :INTEGER</text>
<text text-anchor="start" x="701.5" y="-60.8" font-family="Times,serif" font-size="14.00">user_id :integer</text>
<text text-anchor="start" x="701.5" y="-45.8" font-family="Times,serif" font-size="14.00">chore_id :integer</text>
<text text-anchor="start" x="701.5" y="-30.8" font-family="Times,serif" font-size="14.00">created_at :datetime</text>
<text text-anchor="start" x="701.5" y="-15.8" font-family="Times,serif" font-size="14.00">updated_at :datetime</text>
</g>
<!-- User&#45;&gt;Task -->
<g id="edge2" class="edge"><title>User&#45;&gt;Task</title>
<path fill="none" stroke="#70810f" d="M775.369,-453.228C824.898,-435.733 883.217,-405.652 913,-356 958.267,-280.535 955.705,-234.944 913,-158 895.888,-127.169 864.303,-104.947 834.171,-89.699"/>
<ellipse fill="none" stroke="#70810f" cx="771.284" cy="-454.63" rx="4.00001" ry="4.00001"/>
<polygon fill="#70810f" stroke="#70810f" points="833.88,-89.5574 826.85,-81.1411 829.382,-87.3733 824.884,-85.1891 824.884,-85.1891 824.884,-85.1891 829.382,-87.3733 822.918,-89.237 833.88,-89.5574 833.88,-89.5574"/>
</g>
<!-- Todo -->
<g id="node8" class="node"><title>Todo</title>
<path fill="none" stroke="black" d="M232,-159C232,-159 364,-159 364,-159 370,-159 376,-165 376,-171 376,-171 376,-343 376,-343 376,-349 370,-355 364,-355 364,-355 232,-355 232,-355 226,-355 220,-349 220,-343 220,-343 220,-171 220,-171 220,-165 226,-159 232,-159"/>
<text text-anchor="middle" x="298" y="-339.8" font-family="Times,serif" font-size="14.00">Todo</text>
<polyline fill="none" stroke="black" points="220,-332 376,-332 "/>
<text text-anchor="start" x="228" y="-316.8" font-family="Times,serif" font-size="14.00">id :INTEGER</text>
<text text-anchor="start" x="228" y="-301.8" font-family="Times,serif" font-size="14.00">todo_user_id :integer</text>
<text text-anchor="start" x="228" y="-286.8" font-family="Times,serif" font-size="14.00">title :varchar</text>
<text text-anchor="start" x="228" y="-271.8" font-family="Times,serif" font-size="14.00">description :varchar</text>
<text text-anchor="start" x="228" y="-256.8" font-family="Times,serif" font-size="14.00">todo_category_id :integer</text>
<text text-anchor="start" x="228" y="-241.8" font-family="Times,serif" font-size="14.00">due :datetime</text>
<text text-anchor="start" x="228" y="-226.8" font-family="Times,serif" font-size="14.00">private :boolean</text>
<text text-anchor="start" x="228" y="-211.8" font-family="Times,serif" font-size="14.00">creator_id :integer</text>
<text text-anchor="start" x="228" y="-196.8" font-family="Times,serif" font-size="14.00">created_at :datetime</text>
<text text-anchor="start" x="228" y="-181.8" font-family="Times,serif" font-size="14.00">updated_at :datetime</text>
<text text-anchor="start" x="228" y="-166.8" font-family="Times,serif" font-size="14.00">todo_solution_id :integer</text>
</g>
<!-- User&#45;&gt;Todo -->
<g id="edge7" class="edge"><title>User&#45;&gt;Todo</title>
<path fill="none" stroke="#9a7b31" d="M602.557,-445.719C545.766,-424.804 471.357,-393.74 411,-356 401.981,-350.361 392.955,-344.017 384.156,-337.339"/>
<polygon fill="#9a7b31" stroke="#9a7b31" points="602.835,-445.821 610.688,-453.474 607.533,-447.534 612.23,-449.247 612.23,-449.247 612.23,-449.247 607.533,-447.534 613.772,-445.019 602.835,-445.821 602.835,-445.821"/>
<polygon fill="#9a7b31" stroke="#9a7b31" points="384.046,-337.253 378.904,-327.568 380.095,-334.188 376.145,-331.123 376.145,-331.123 376.145,-331.123 380.095,-334.188 373.386,-334.678 384.046,-337.253 384.046,-337.253"/>
</g>
<!-- TodoUser -->
<g id="node9" class="node"><title>TodoUser</title>
<path fill="none" stroke="black" d="M382.5,-8C382.5,-8 489.5,-8 489.5,-8 495.5,-8 501.5,-14 501.5,-20 501.5,-20 501.5,-102 501.5,-102 501.5,-108 495.5,-114 489.5,-114 489.5,-114 382.5,-114 382.5,-114 376.5,-114 370.5,-108 370.5,-102 370.5,-102 370.5,-20 370.5,-20 370.5,-14 376.5,-8 382.5,-8"/>
<text text-anchor="middle" x="436" y="-98.8" font-family="Times,serif" font-size="14.00">TodoUser</text>
<polyline fill="none" stroke="black" points="370.5,-91 501.5,-91 "/>
<text text-anchor="start" x="378.5" y="-75.8" font-family="Times,serif" font-size="14.00">id :INTEGER</text>
<text text-anchor="start" x="378.5" y="-60.8" font-family="Times,serif" font-size="14.00">user_id :integer</text>
<text text-anchor="start" x="378.5" y="-45.8" font-family="Times,serif" font-size="14.00">todo_id :integer</text>
<text text-anchor="start" x="378.5" y="-30.8" font-family="Times,serif" font-size="14.00">created_at :datetime</text>
<text text-anchor="start" x="378.5" y="-15.8" font-family="Times,serif" font-size="14.00">updated_at :datetime</text>
</g>
<!-- User&#45;&gt;TodoUser -->
<g id="edge6" class="edge"><title>User&#45;&gt;TodoUser</title>
<path fill="none" stroke="#7a81c6" d="M604.624,-457.679C548.729,-441.486 479.661,-411.182 444,-356 399.148,-286.594 407.809,-187.441 420.248,-123.893"/>
<ellipse fill="none" stroke="#7a81c6" cx="608.568" cy="-458.788" rx="4.00001" ry="4.00001"/>
<polygon fill="#7a81c6" stroke="#7a81c6" points="420.265,-123.806 426.678,-114.911 421.267,-118.908 422.269,-114.009 422.269,-114.009 422.269,-114.009 421.267,-118.908 417.86,-113.108 420.265,-123.806 420.265,-123.806"/>
</g>
<!-- Purchase -->
<g id="node10" class="node"><title>Purchase</title>
<path fill="none" stroke="black" d="M973,-189C973,-189 1129,-189 1129,-189 1135,-189 1141,-195 1141,-201 1141,-201 1141,-313 1141,-313 1141,-319 1135,-325 1129,-325 1129,-325 973,-325 973,-325 967,-325 961,-319 961,-313 961,-313 961,-201 961,-201 961,-195 967,-189 973,-189"/>
<text text-anchor="middle" x="1051" y="-309.8" font-family="Times,serif" font-size="14.00">Purchase</text>
<polyline fill="none" stroke="black" points="961,-302 1141,-302 "/>
<text text-anchor="start" x="969" y="-286.8" font-family="Times,serif" font-size="14.00">id :INTEGER</text>
<text text-anchor="start" x="969" y="-271.8" font-family="Times,serif" font-size="14.00">user_id :integer</text>
<text text-anchor="start" x="969" y="-256.8" font-family="Times,serif" font-size="14.00">purchase_category_id :integer</text>
<text text-anchor="start" x="969" y="-241.8" font-family="Times,serif" font-size="14.00">description :varchar</text>
<text text-anchor="start" x="969" y="-226.8" font-family="Times,serif" font-size="14.00">created_at :datetime</text>
<text text-anchor="start" x="969" y="-211.8" font-family="Times,serif" font-size="14.00">updated_at :datetime</text>
<text text-anchor="start" x="969" y="-196.8" font-family="Times,serif" font-size="14.00">price :decimal(8,2)</text>
</g>
<!-- User&#45;&gt;Purchase -->
<g id="edge4" class="edge"><title>User&#45;&gt;Purchase</title>
<path fill="none" stroke="#1612de" d="M775.192,-443.657C827.064,-422.647 893.43,-392.232 947,-356 957.644,-348.801 968.239,-340.503 978.368,-331.846"/>
<ellipse fill="none" stroke="#1612de" cx="771.359" cy="-445.197" rx="4.00001" ry="4.00001"/>
<polygon fill="#1612de" stroke="#1612de" points="978.483,-331.745 988.976,-328.557 982.25,-328.456 986.016,-325.168 986.016,-325.168 986.016,-325.168 982.25,-328.456 983.056,-321.778 978.483,-331.745 978.483,-331.745"/>
</g>
<!-- Chore -->
<g id="node11" class="node"><title>Chore</title>
<path fill="none" stroke="black" d="M465.5,-174C465.5,-174 594.5,-174 594.5,-174 600.5,-174 606.5,-180 606.5,-186 606.5,-186 606.5,-328 606.5,-328 606.5,-334 600.5,-340 594.5,-340 594.5,-340 465.5,-340 465.5,-340 459.5,-340 453.5,-334 453.5,-328 453.5,-328 453.5,-186 453.5,-186 453.5,-180 459.5,-174 465.5,-174"/>
<text text-anchor="middle" x="530" y="-324.8" font-family="Times,serif" font-size="14.00">Chore</text>
<polyline fill="none" stroke="black" points="453.5,-317 606.5,-317 "/>
<text text-anchor="start" x="461.5" y="-301.8" font-family="Times,serif" font-size="14.00">id :INTEGER</text>
<text text-anchor="start" x="461.5" y="-286.8" font-family="Times,serif" font-size="14.00">name :varchar</text>
<text text-anchor="start" x="461.5" y="-271.8" font-family="Times,serif" font-size="14.00">priority :integer</text>
<text text-anchor="start" x="461.5" y="-256.8" font-family="Times,serif" font-size="14.00">reward :integer</text>
<text text-anchor="start" x="461.5" y="-241.8" font-family="Times,serif" font-size="14.00">created_at :datetime</text>
<text text-anchor="start" x="461.5" y="-226.8" font-family="Times,serif" font-size="14.00">updated_at :datetime</text>
<text text-anchor="start" x="461.5" y="-211.8" font-family="Times,serif" font-size="14.00">creator_id :integer</text>
<text text-anchor="start" x="461.5" y="-196.8" font-family="Times,serif" font-size="14.00">private :boolean</text>
<text text-anchor="start" x="461.5" y="-181.8" font-family="Times,serif" font-size="14.00">completion_text :varchar</text>
</g>
<!-- User&#45;&gt;Chore -->
<g id="edge3" class="edge"><title>User&#45;&gt;Chore</title>
<path fill="none" stroke="#610873" d="M623.491,-384.798C614.628,-372.777 605.537,-360.447 596.671,-348.423"/>
<polygon fill="#610873" stroke="#610873" points="623.576,-384.913 625.889,-395.632 626.544,-388.937 629.511,-392.962 629.511,-392.962 629.511,-392.962 626.544,-388.937 633.133,-390.291 623.576,-384.913 623.576,-384.913"/>
<polygon fill="#610873" stroke="#610873" points="596.509,-348.203 594.197,-337.484 593.542,-344.179 590.575,-340.154 590.575,-340.154 590.575,-340.154 593.542,-344.179 586.953,-342.825 596.509,-348.203 596.509,-348.203"/>
</g>
<!-- Xp -->
<g id="node14" class="node"><title>Xp</title>
<path fill="none" stroke="black" d="M636.5,-196.5C636.5,-196.5 743.5,-196.5 743.5,-196.5 749.5,-196.5 755.5,-202.5 755.5,-208.5 755.5,-208.5 755.5,-305.5 755.5,-305.5 755.5,-311.5 749.5,-317.5 743.5,-317.5 743.5,-317.5 636.5,-317.5 636.5,-317.5 630.5,-317.5 624.5,-311.5 624.5,-305.5 624.5,-305.5 624.5,-208.5 624.5,-208.5 624.5,-202.5 630.5,-196.5 636.5,-196.5"/>
<text text-anchor="middle" x="690" y="-302.3" font-family="Times,serif" font-size="14.00">Xp</text>
<polyline fill="none" stroke="black" points="624.5,-294.5 755.5,-294.5 "/>
<text text-anchor="start" x="632.5" y="-279.3" font-family="Times,serif" font-size="14.00">id :INTEGER</text>
<text text-anchor="start" x="632.5" y="-264.3" font-family="Times,serif" font-size="14.00">created_at :datetime</text>
<text text-anchor="start" x="632.5" y="-249.3" font-family="Times,serif" font-size="14.00">updated_at :datetime</text>
<text text-anchor="start" x="632.5" y="-234.3" font-family="Times,serif" font-size="14.00">source :varchar</text>
<text text-anchor="start" x="632.5" y="-219.3" font-family="Times,serif" font-size="14.00">points :integer</text>
<text text-anchor="start" x="632.5" y="-204.3" font-family="Times,serif" font-size="14.00">user_id :integer</text>
</g>
<!-- User&#45;&gt;Xp -->
<g id="edge5" class="edge"><title>User&#45;&gt;Xp</title>
<path fill="none" stroke="#c05114" d="M690,-384.666C690,-365.627 690,-345.819 690,-327.679"/>
<ellipse fill="none" stroke="#c05114" cx="690" cy="-388.962" rx="4" ry="4"/>
<polygon fill="#c05114" stroke="#c05114" points="690,-327.5 694.5,-317.5 690,-322.5 690,-317.5 690,-317.5 690,-317.5 690,-322.5 685.5,-317.5 690,-327.5 690,-327.5"/>
</g>
<!-- TodoCategory -->
<g id="node4" class="node"><title>TodoCategory</title>
<path fill="none" stroke="black" d="M244.5,-423C244.5,-423 351.5,-423 351.5,-423 357.5,-423 363.5,-429 363.5,-435 363.5,-435 363.5,-517 363.5,-517 363.5,-523 357.5,-529 351.5,-529 351.5,-529 244.5,-529 244.5,-529 238.5,-529 232.5,-523 232.5,-517 232.5,-517 232.5,-435 232.5,-435 232.5,-429 238.5,-423 244.5,-423"/>
<text text-anchor="middle" x="298" y="-513.8" font-family="Times,serif" font-size="14.00">TodoCategory</text>
<polyline fill="none" stroke="black" points="232.5,-506 363.5,-506 "/>
<text text-anchor="start" x="240.5" y="-490.8" font-family="Times,serif" font-size="14.00">id :INTEGER</text>
<text text-anchor="start" x="240.5" y="-475.8" font-family="Times,serif" font-size="14.00">name :varchar</text>
<text text-anchor="start" x="240.5" y="-460.8" font-family="Times,serif" font-size="14.00">priority :integer</text>
<text text-anchor="start" x="240.5" y="-445.8" font-family="Times,serif" font-size="14.00">created_at :datetime</text>
<text text-anchor="start" x="240.5" y="-430.8" font-family="Times,serif" font-size="14.00">updated_at :datetime</text>
</g>
<!-- TodoCategory&#45;&gt;Todo -->
<g id="edge8" class="edge"><title>TodoCategory&#45;&gt;Todo</title>
<path fill="none" stroke="#2050c1" d="M298,-414.47C298,-399.241 298,-382.433 298,-365.653"/>
<ellipse fill="none" stroke="#2050c1" cx="298" cy="-418.747" rx="4" ry="4"/>
<polygon fill="#2050c1" stroke="#2050c1" points="298,-365.223 302.5,-355.222 298,-360.223 298,-355.223 298,-355.223 298,-355.223 298,-360.223 293.5,-355.223 298,-365.223 298,-365.223"/>
</g>
<!-- TodoComment -->
<g id="node5" class="node"><title>TodoComment</title>
<path fill="none" stroke="black" d="M233.5,-0.5C233.5,-0.5 340.5,-0.5 340.5,-0.5 346.5,-0.5 352.5,-6.5 352.5,-12.5 352.5,-12.5 352.5,-109.5 352.5,-109.5 352.5,-115.5 346.5,-121.5 340.5,-121.5 340.5,-121.5 233.5,-121.5 233.5,-121.5 227.5,-121.5 221.5,-115.5 221.5,-109.5 221.5,-109.5 221.5,-12.5 221.5,-12.5 221.5,-6.5 227.5,-0.5 233.5,-0.5"/>
<text text-anchor="middle" x="287" y="-106.3" font-family="Times,serif" font-size="14.00">TodoComment</text>
<polyline fill="none" stroke="black" points="221.5,-98.5 352.5,-98.5 "/>
<text text-anchor="start" x="229.5" y="-83.3" font-family="Times,serif" font-size="14.00">id :INTEGER</text>
<text text-anchor="start" x="229.5" y="-68.3" font-family="Times,serif" font-size="14.00">user_id :integer</text>
<text text-anchor="start" x="229.5" y="-53.3" font-family="Times,serif" font-size="14.00">comment :varchar</text>
<text text-anchor="start" x="229.5" y="-38.3" font-family="Times,serif" font-size="14.00">todo_id :integer</text>
<text text-anchor="start" x="229.5" y="-23.3" font-family="Times,serif" font-size="14.00">created_at :datetime</text>
<text text-anchor="start" x="229.5" y="-8.3" font-family="Times,serif" font-size="14.00">updated_at :datetime</text>
</g>
<!-- TodoSolution -->
<g id="node7" class="node"><title>TodoSolution</title>
<path fill="none" stroke="black" d="M84.5,-0.5C84.5,-0.5 191.5,-0.5 191.5,-0.5 197.5,-0.5 203.5,-6.5 203.5,-12.5 203.5,-12.5 203.5,-109.5 203.5,-109.5 203.5,-115.5 197.5,-121.5 191.5,-121.5 191.5,-121.5 84.5,-121.5 84.5,-121.5 78.5,-121.5 72.5,-115.5 72.5,-109.5 72.5,-109.5 72.5,-12.5 72.5,-12.5 72.5,-6.5 78.5,-0.5 84.5,-0.5"/>
<text text-anchor="middle" x="138" y="-106.3" font-family="Times,serif" font-size="14.00">TodoSolution</text>
<polyline fill="none" stroke="black" points="72.5,-98.5 203.5,-98.5 "/>
<text text-anchor="start" x="80.5" y="-83.3" font-family="Times,serif" font-size="14.00">id :INTEGER</text>
<text text-anchor="start" x="80.5" y="-68.3" font-family="Times,serif" font-size="14.00">user_id :integer</text>
<text text-anchor="start" x="80.5" y="-53.3" font-family="Times,serif" font-size="14.00">solution :varchar</text>
<text text-anchor="start" x="80.5" y="-38.3" font-family="Times,serif" font-size="14.00">created_at :datetime</text>
<text text-anchor="start" x="80.5" y="-23.3" font-family="Times,serif" font-size="14.00">updated_at :datetime</text>
<text text-anchor="start" x="80.5" y="-8.3" font-family="Times,serif" font-size="14.00">todo_id :integer</text>
</g>
<!-- Todo&#45;&gt;TodoComment -->
<g id="edge11" class="edge"><title>Todo&#45;&gt;TodoComment</title>
<path fill="none" stroke="#b11a80" d="M292.03,-150.708C291.668,-144.325 291.309,-137.99 290.959,-131.815"/>
<ellipse fill="none" stroke="#b11a80" cx="292.257" cy="-154.722" rx="4" ry="4"/>
<polygon fill="#b11a80" stroke="#b11a80" points="290.945,-131.578 294.872,-121.339 290.662,-126.586 290.379,-121.594 290.379,-121.594 290.379,-121.594 290.662,-126.586 285.886,-121.849 290.945,-131.578 290.945,-131.578"/>
</g>
<!-- Todo&#45;&gt;TodoSolution -->
<g id="edge10" class="edge"><title>Todo&#45;&gt;TodoSolution</title>
<path fill="none" stroke="#95a4e0" d="M214.669,-154.961C207.133,-145.823 199.636,-136.733 192.447,-128.016"/>
<ellipse fill="none" stroke="#95a4e0" cx="217.33" cy="-158.187" rx="4.00002" ry="4.00002"/>
<ellipse fill="#95a4e0" stroke="#95a4e0" cx="189.815" cy="-124.826" rx="4.00002" ry="4.00002"/>
</g>
<!-- Todo&#45;&gt;TodoUser -->
<g id="edge9" class="edge"><title>Todo&#45;&gt;TodoUser</title>
<path fill="none" stroke="#43aa8b" d="M372.08,-151.859C379.282,-141.734 386.41,-131.713 393.148,-122.241"/>
<ellipse fill="none" stroke="#43aa8b" cx="369.521" cy="-155.456" rx="4.00002" ry="4.00002"/>
<polygon fill="#43aa8b" stroke="#43aa8b" points="393.164,-122.218 402.628,-116.678 396.063,-118.144 398.961,-114.07 398.961,-114.07 398.961,-114.07 396.063,-118.144 395.294,-111.461 393.164,-122.218 393.164,-122.218"/>
</g>
<!-- Chore&#45;&gt;Task -->
<g id="edge12" class="edge"><title>Chore&#45;&gt;Task</title>
<path fill="none" stroke="#46c4f4" d="M604.336,-167.841C607.865,-164.443 611.427,-161.147 615,-158 636.285,-139.25 661.454,-121.274 684.749,-106.05"/>
<ellipse fill="none" stroke="#46c4f4" cx="601.283" cy="-170.844" rx="4.00002" ry="4.00002"/>
<polygon fill="#46c4f4" stroke="#46c4f4" points="684.835,-105.995 695.677,-104.35 689.035,-103.282 693.235,-100.57 693.235,-100.57 693.235,-100.57 689.035,-103.282 690.794,-96.7895 684.835,-105.995 684.835,-105.995"/>
</g>
<!-- PurchaseCategory -->
<g id="node12" class="node"><title>PurchaseCategory</title>
<path fill="none" stroke="black" d="M997.5,-430.5C997.5,-430.5 1104.5,-430.5 1104.5,-430.5 1110.5,-430.5 1116.5,-436.5 1116.5,-442.5 1116.5,-442.5 1116.5,-509.5 1116.5,-509.5 1116.5,-515.5 1110.5,-521.5 1104.5,-521.5 1104.5,-521.5 997.5,-521.5 997.5,-521.5 991.5,-521.5 985.5,-515.5 985.5,-509.5 985.5,-509.5 985.5,-442.5 985.5,-442.5 985.5,-436.5 991.5,-430.5 997.5,-430.5"/>
<text text-anchor="middle" x="1051" y="-506.3" font-family="Times,serif" font-size="14.00">PurchaseCategory</text>
<polyline fill="none" stroke="black" points="985.5,-498.5 1116.5,-498.5 "/>
<text text-anchor="start" x="993.5" y="-483.3" font-family="Times,serif" font-size="14.00">id :INTEGER</text>
<text text-anchor="start" x="993.5" y="-468.3" font-family="Times,serif" font-size="14.00">name :varchar</text>
<text text-anchor="start" x="993.5" y="-453.3" font-family="Times,serif" font-size="14.00">created_at :datetime</text>
<text text-anchor="start" x="993.5" y="-438.3" font-family="Times,serif" font-size="14.00">updated_at :datetime</text>
</g>
<!-- PurchaseCategory&#45;&gt;Purchase -->
<g id="edge13" class="edge"><title>PurchaseCategory&#45;&gt;Purchase</title>
<path fill="none" stroke="#fb749d" d="M1051,-422.279C1051,-396.182 1051,-364.172 1051,-335.362"/>
<ellipse fill="none" stroke="#fb749d" cx="1051" cy="-426.301" rx="4" ry="4"/>
<polygon fill="#fb749d" stroke="#fb749d" points="1051,-335.32 1055.5,-325.32 1051,-330.32 1051,-325.32 1051,-325.32 1051,-325.32 1051,-330.32 1046.5,-325.32 1051,-335.32 1051,-335.32"/>
</g>
<!-- Refund -->
<g id="node13" class="node"><title>Refund</title>
<path fill="none" stroke="black" d="M1146.5,-408C1146.5,-408 1257.5,-408 1257.5,-408 1263.5,-408 1269.5,-414 1269.5,-420 1269.5,-420 1269.5,-532 1269.5,-532 1269.5,-538 1263.5,-544 1257.5,-544 1257.5,-544 1146.5,-544 1146.5,-544 1140.5,-544 1134.5,-538 1134.5,-532 1134.5,-532 1134.5,-420 1134.5,-420 1134.5,-414 1140.5,-408 1146.5,-408"/>
<text text-anchor="middle" x="1202" y="-528.8" font-family="Times,serif" font-size="14.00">Refund</text>
<polyline fill="none" stroke="black" points="1134.5,-521 1269.5,-521 "/>
<text text-anchor="start" x="1142.5" y="-505.8" font-family="Times,serif" font-size="14.00">id :INTEGER</text>
<text text-anchor="start" x="1142.5" y="-490.8" font-family="Times,serif" font-size="14.00">payer_id :integer</text>
<text text-anchor="start" x="1142.5" y="-475.8" font-family="Times,serif" font-size="14.00">receiver_id :integer</text>
<text text-anchor="start" x="1142.5" y="-460.8" font-family="Times,serif" font-size="14.00">created_at :datetime</text>
<text text-anchor="start" x="1142.5" y="-445.8" font-family="Times,serif" font-size="14.00">updated_at :datetime</text>
<text text-anchor="start" x="1142.5" y="-430.8" font-family="Times,serif" font-size="14.00">amount :decimal(8,2)</text>
<text text-anchor="start" x="1142.5" y="-415.8" font-family="Times,serif" font-size="14.00">confirmed :boolean</text>
</g>
</g>
</svg>
